<svg width="169" height="50" viewBox="0 0 169 50" fill="none" xmlns="http://www.w3.org/2000/svg">
<path d="M162.987 50H5.92001C2.65643 50 0 47.34 0 44.0837V5.9075C0 2.65 2.65643 0 5.92001 0H162.987C166.25 0 169 2.65 169 5.9075V44.0837C169 47.34 166.25 50 162.987 50Z" fill="#A6A6A6"/>
<path d="M167.787 44.0858C167.787 46.7308 165.642 48.8733 162.988 48.8733H5.91914C3.26647 48.8733 1.11328 46.7308 1.11328 44.0858V5.90703C1.11328 3.26328 3.26647 1.11328 5.91914 1.11328H162.986C165.642 1.11328 167.786 3.26328 167.786 5.90703L167.787 44.0858Z" fill="black"/>
<path d="M37.7178 24.7273C37.6815 20.6986 41.0215 18.7386 41.1742 18.6473C39.2827 15.8936 36.3508 15.5173 35.3206 15.4873C32.8582 15.2286 30.4696 16.9586 29.2153 16.9586C27.9359 16.9586 26.0043 15.5123 23.9224 15.5548C21.2435 15.5961 18.7373 17.1448 17.3627 19.5498C14.526 24.4536 16.6417 31.6598 19.3594 35.6236C20.719 37.5648 22.3076 39.7323 24.3869 39.6561C26.4211 39.5723 27.181 38.3611 29.6359 38.3611C32.0682 38.3611 32.7818 39.6561 34.9024 39.6073C37.0857 39.5723 38.4602 37.6573 39.7721 35.6986C41.3432 33.4736 41.9741 31.2823 41.9992 31.1698C41.9479 31.1523 37.7592 29.5561 37.7178 24.7273Z" fill="white"/>
<path d="M33.7138 12.8808C34.8079 11.5145 35.5565 9.65578 35.3487 7.76953C33.7651 7.83953 31.7847 8.86328 30.6442 10.1995C29.6352 11.377 28.7339 13.307 28.9667 15.122C30.7456 15.2545 32.5721 14.2258 33.7138 12.8808Z" fill="white"/>
<path d="M67.1544 39.3772H64.3114L62.7541 34.4909H57.3411L55.8577 39.3772H53.0898L58.4528 22.7422H61.7652L67.1544 39.3772ZM62.2847 32.4409L60.8764 28.0972C60.7274 27.6534 60.4482 26.6084 60.0364 24.9634H59.9863C59.8223 25.6709 59.5582 26.7159 59.1951 28.0972L57.8118 32.4409H62.2847Z" fill="white"/>
<path d="M80.9473 33.233C80.9473 35.273 80.3952 36.8855 79.2911 38.0692C78.3021 39.123 77.074 39.6492 75.6081 39.6492C74.0258 39.6492 72.8891 39.0817 72.1968 37.9467H72.1467V44.2655H69.4778V31.3317C69.4778 30.0492 69.444 28.733 69.3789 27.383H71.7261L71.8751 29.2842H71.9252C72.8152 27.8517 74.166 27.1367 75.9787 27.1367C77.3958 27.1367 78.5788 27.6955 79.5252 28.8142C80.4741 29.9342 80.9473 31.4067 80.9473 33.233ZM78.2282 33.3305C78.2282 32.163 77.9654 31.2005 77.4371 30.443C76.86 29.653 76.0851 29.258 75.1136 29.258C74.4552 29.258 73.8568 29.478 73.3222 29.9117C72.7864 30.3492 72.4359 30.9205 72.2719 31.628C72.1893 31.958 72.148 32.228 72.148 32.4405V34.4405C72.148 35.313 72.4159 36.0492 72.9517 36.6505C73.4875 37.2517 74.1835 37.5517 75.0398 37.5517C76.045 37.5517 76.8274 37.1642 77.387 36.3917C77.9478 35.618 78.2282 34.598 78.2282 33.3305Z" fill="white"/>
<path d="M94.7624 33.233C94.7624 35.273 94.2104 36.8855 93.105 38.0692C92.1173 39.123 90.8892 39.6492 89.4233 39.6492C87.8409 39.6492 86.7043 39.0817 86.0132 37.9467H85.9632V44.2655H83.2942V31.3317C83.2942 30.0492 83.2604 28.733 83.1953 27.383H85.5425L85.6915 29.2842H85.7416C86.6304 27.8517 87.9811 27.1367 89.7951 27.1367C91.2109 27.1367 92.3939 27.6955 93.3428 28.8142C94.288 29.9342 94.7624 31.4067 94.7624 33.233ZM92.0434 33.3305C92.0434 32.163 91.7793 31.2005 91.251 30.443C90.6739 29.653 89.9015 29.258 88.9288 29.258C88.2691 29.258 87.6719 29.478 87.1361 29.9117C86.6004 30.3492 86.2511 30.9205 86.0871 31.628C86.0057 31.958 85.9632 32.228 85.9632 32.4405V34.4405C85.9632 35.313 86.2311 36.0492 86.7643 36.6505C87.3001 37.2505 87.9962 37.5517 88.8549 37.5517C89.8602 37.5517 90.6426 37.1642 91.2022 36.3917C91.763 35.618 92.0434 34.598 92.0434 33.3305Z" fill="white"/>
<path d="M110.21 34.7137C110.21 36.1287 109.718 37.28 108.731 38.1687C107.645 39.14 106.134 39.625 104.193 39.625C102.4 39.625 100.963 39.28 99.875 38.5887L100.493 36.3675C101.665 37.075 102.951 37.43 104.352 37.43C105.357 37.43 106.139 37.2025 106.701 36.75C107.261 36.2975 107.54 35.69 107.54 34.9325C107.54 34.2575 107.31 33.6888 106.848 33.2275C106.388 32.7662 105.621 32.3375 104.549 31.9413C101.633 30.855 100.175 29.2638 100.175 27.1713C100.175 25.8038 100.686 24.6825 101.709 23.81C102.728 22.9363 104.087 22.5 105.787 22.5C107.303 22.5 108.563 22.7637 109.568 23.29L108.901 25.4625C107.962 24.9525 106.9 24.6975 105.712 24.6975C104.773 24.6975 104.04 24.9288 103.514 25.3888C103.07 25.8 102.847 26.3013 102.847 26.895C102.847 27.5525 103.101 28.0962 103.612 28.5237C104.056 28.9187 104.864 29.3463 106.035 29.8075C107.469 30.3837 108.522 31.0575 109.199 31.83C109.874 32.6 110.21 33.5637 110.21 34.7137Z" fill="white"/>
<path d="M119.035 29.3833H116.093V35.207C116.093 36.6883 116.611 37.4283 117.65 37.4283C118.127 37.4283 118.523 37.387 118.836 37.3045L118.909 39.3283C118.384 39.5245 117.691 39.6233 116.834 39.6233C115.78 39.6233 114.956 39.302 114.361 38.6608C113.769 38.0183 113.471 36.9408 113.471 35.427V29.3808H111.719V27.3808H113.471V25.1845L116.093 24.3945V27.3808H119.035V29.3833Z" fill="white"/>
<path d="M132.309 33.2844C132.309 35.1281 131.781 36.6419 130.727 37.8256C129.621 39.0444 128.154 39.6519 126.325 39.6519C124.563 39.6519 123.159 39.0681 122.113 37.9006C121.066 36.7331 120.543 35.2594 120.543 33.4831C120.543 31.6244 121.081 30.1019 122.162 28.9181C123.239 27.7331 124.694 27.1406 126.523 27.1406C128.286 27.1406 129.704 27.7244 130.774 28.8931C131.798 30.0269 132.309 31.4906 132.309 33.2844ZM129.54 33.3706C129.54 32.2644 129.303 31.3156 128.824 30.5244C128.264 29.5669 127.464 29.0894 126.428 29.0894C125.355 29.0894 124.54 29.5681 123.981 30.5244C123.501 31.3169 123.264 32.2806 123.264 33.4206C123.264 34.5269 123.501 35.4756 123.981 36.2656C124.558 37.2231 125.364 37.7006 126.404 37.7006C127.423 37.7006 128.223 37.2131 128.8 36.2406C129.292 35.4344 129.54 34.4756 129.54 33.3706Z" fill="white"/>
<path d="M140.982 29.7267C140.718 29.678 140.436 29.653 140.14 29.653C139.202 29.653 138.475 30.0067 137.965 30.7155C137.52 31.3405 137.297 32.1305 137.297 33.0842V39.378H134.63L134.655 31.1605C134.655 29.778 134.621 28.5192 134.555 27.3842H136.879L136.977 29.6792H137.051C137.333 28.8905 137.777 28.2555 138.385 27.7792C138.98 27.3505 139.622 27.1367 140.314 27.1367C140.561 27.1367 140.784 27.1542 140.982 27.1855V29.7267Z" fill="white"/>
<path d="M152.918 32.812C152.918 33.2895 152.887 33.692 152.82 34.0208H144.813C144.845 35.2058 145.232 36.112 145.975 36.737C146.65 37.2958 147.523 37.5758 148.594 37.5758C149.78 37.5758 150.861 37.387 151.834 37.0083L152.252 38.8583C151.115 39.3533 149.773 39.5995 148.225 39.5995C146.362 39.5995 144.9 39.052 143.836 37.9583C142.774 36.8645 142.242 35.3958 142.242 33.5533C142.242 31.7445 142.737 30.2383 143.727 29.037C144.763 27.7545 146.164 27.1133 147.927 27.1133C149.658 27.1133 150.969 27.7545 151.859 29.037C152.564 30.0558 152.918 31.3158 152.918 32.812ZM150.373 32.1208C150.39 31.3308 150.216 30.6483 149.855 30.072C149.393 29.3308 148.683 28.9608 147.728 28.9608C146.855 28.9608 146.145 29.322 145.603 30.047C145.159 30.6233 144.895 31.3145 144.813 32.1195L150.373 32.1208Z" fill="white"/>
<path d="M61.4032 12.5123C61.4032 13.9836 60.9613 15.0911 60.0788 15.8348C59.2613 16.5211 58.0996 16.8648 56.5949 16.8648C55.8488 16.8648 55.2103 16.8323 54.6758 16.7673V8.72859C55.3731 8.61609 56.1242 8.55859 56.9354 8.55859C58.3687 8.55859 59.4491 8.86984 60.1777 9.49234C60.9939 10.1961 61.4032 11.2023 61.4032 12.5123ZM60.0199 12.5486C60.0199 11.5948 59.7671 10.8636 59.2613 10.3536C58.7556 9.84484 58.017 9.58984 57.0443 9.58984C56.6312 9.58984 56.2794 9.61734 55.9877 9.67484V15.7861C56.1492 15.8111 56.4446 15.8223 56.874 15.8223C57.878 15.8223 58.6529 15.5436 59.1987 14.9861C59.7445 14.4286 60.0199 13.6161 60.0199 12.5486Z" fill="white"/>
<path d="M68.7368 13.7948C68.7368 14.7011 68.4777 15.4436 67.9594 16.0261C67.4161 16.6248 66.6963 16.9236 65.7975 16.9236C64.9312 16.9236 64.2414 16.6373 63.7269 16.0623C63.2137 15.4886 62.957 14.7648 62.957 13.8923C62.957 12.9798 63.2212 12.2311 63.752 11.6498C64.2827 11.0686 64.9963 10.7773 65.8951 10.7773C66.7614 10.7773 67.4574 11.0636 67.9845 11.6373C68.4852 12.1948 68.7368 12.9148 68.7368 13.7948ZM67.3761 13.8373C67.3761 13.2936 67.2584 12.8273 67.0243 12.4386C66.7489 11.9686 66.3571 11.7336 65.8476 11.7336C65.3205 11.7336 64.9199 11.9686 64.6445 12.4386C64.4092 12.8273 64.2928 13.3011 64.2928 13.8611C64.2928 14.4048 64.4104 14.8711 64.6445 15.2598C64.9287 15.7298 65.3243 15.9648 65.835 15.9648C66.3358 15.9648 66.7289 15.7261 67.0118 15.2473C67.2546 14.8511 67.3761 14.3811 67.3761 13.8373Z" fill="white"/>
<path d="M78.5736 10.8984L76.7271 16.7909H75.5253L74.7604 14.2322C74.5664 13.5934 74.4087 12.9584 74.286 12.3284H74.2622C74.1483 12.9759 73.9906 13.6097 73.7878 14.2322L72.9753 16.7909H71.7598L70.0234 10.8984H71.3717L72.0389 13.6997C72.2004 14.3622 72.3331 14.9934 72.4395 15.5909H72.4633C72.5609 15.0984 72.7224 14.4709 72.9503 13.7122L73.7878 10.8997H74.8568L75.6593 13.6522C75.8533 14.3234 76.011 14.9697 76.1325 15.5922H76.1688C76.2577 14.9859 76.3916 14.3397 76.5694 13.6522L77.2854 10.8997H78.5736V10.8984Z" fill="white"/>
<path d="M85.3719 16.7897H84.0599V13.4147C84.0599 12.3747 83.6643 11.8547 82.8707 11.8547C82.4813 11.8547 82.1671 11.9972 81.923 12.2834C81.6814 12.5697 81.5587 12.9072 81.5587 13.2934V16.7884H80.2468V12.5809C80.2468 12.0634 80.2305 11.5022 80.1992 10.8947H81.3522L81.4135 11.8159H81.4498C81.6025 11.5297 81.8304 11.2934 82.1296 11.1047C82.4851 10.8847 82.8832 10.7734 83.3188 10.7734C83.8696 10.7734 84.3278 10.9509 84.6921 11.3072C85.1453 11.7434 85.3719 12.3947 85.3719 13.2597V16.7897Z" fill="white"/>
<path d="M88.9904 16.7916H87.6797V8.19531H88.9904V16.7916Z" fill="white"/>
<path d="M96.7173 13.7948C96.7173 14.7011 96.4582 15.4436 95.9399 16.0261C95.3966 16.6248 94.6755 16.9236 93.778 16.9236C92.9104 16.9236 92.2206 16.6373 91.7074 16.0623C91.1941 15.4886 90.9375 14.7648 90.9375 13.8923C90.9375 12.9798 91.2016 12.2311 91.7324 11.6498C92.2632 11.0686 92.9768 10.7773 93.8743 10.7773C94.7419 10.7773 95.4367 11.0636 95.9649 11.6373C96.4657 12.1948 96.7173 12.9148 96.7173 13.7948ZM95.3553 13.8373C95.3553 13.2936 95.2376 12.8273 95.0035 12.4386C94.7294 11.9686 94.3363 11.7336 93.828 11.7336C93.2997 11.7336 92.8992 11.9686 92.625 12.4386C92.3896 12.8273 92.2732 13.3011 92.2732 13.8611C92.2732 14.4048 92.3909 14.8711 92.625 15.2598C92.9092 15.7298 93.3048 15.9648 93.8155 15.9648C94.3163 15.9648 94.7081 15.7261 94.991 15.2473C95.2351 14.8511 95.3553 14.3811 95.3553 13.8373Z" fill="white"/>
<path d="M103.063 16.7898H101.885L101.788 16.1111H101.751C101.348 16.6523 100.774 16.9236 100.028 16.9236C99.4706 16.9236 99.0199 16.7448 98.6807 16.3898C98.3727 16.0673 98.2188 15.6661 98.2188 15.1898C98.2188 14.4698 98.5192 13.9211 99.1238 13.5411C99.7272 13.1611 100.576 12.9748 101.669 12.9836V12.8736C101.669 12.0973 101.261 11.7098 100.443 11.7098C99.8612 11.7098 99.3479 11.8561 98.9048 12.1461L98.6381 11.2861C99.1864 10.9473 99.8637 10.7773 100.662 10.7773C102.205 10.7773 102.978 11.5898 102.978 13.2148V15.3848C102.978 15.9736 103.007 16.4423 103.063 16.7898ZM101.701 14.7648V13.8561C100.254 13.8311 99.5307 14.2273 99.5307 15.0436C99.5307 15.3511 99.6133 15.5811 99.7823 15.7348C99.9513 15.8886 100.167 15.9648 100.423 15.9648C100.711 15.9648 100.98 15.8736 101.226 15.6923C101.472 15.5098 101.624 15.2786 101.68 14.9948C101.694 14.9311 101.701 14.8536 101.701 14.7648Z" fill="white"/>
<path d="M110.52 16.7916H109.356L109.294 15.8453H109.258C108.886 16.5653 108.253 16.9253 107.363 16.9253C106.652 16.9253 106.06 16.6466 105.59 16.0891C105.121 15.5316 104.887 14.8078 104.887 13.9191C104.887 12.9653 105.141 12.1928 105.652 11.6028C106.146 11.0528 106.752 10.7778 107.473 10.7778C108.265 10.7778 108.82 11.0441 109.136 11.5778H109.161V8.19531H110.474V15.2041C110.474 15.7778 110.489 16.3066 110.52 16.7916ZM109.161 14.3066V13.3241C109.161 13.1541 109.148 13.0166 109.124 12.9116C109.05 12.5966 108.891 12.3316 108.65 12.1178C108.406 11.9041 108.111 11.7966 107.772 11.7966C107.283 11.7966 106.9 11.9903 106.618 12.3791C106.339 12.7678 106.197 13.2641 106.197 13.8703C106.197 14.4528 106.331 14.9253 106.6 15.2891C106.885 15.6766 107.268 15.8703 107.747 15.8703C108.178 15.8703 108.522 15.7091 108.784 15.3853C109.037 15.0866 109.161 14.7266 109.161 14.3066Z" fill="white"/>
<path d="M121.741 13.7948C121.741 14.7011 121.482 15.4436 120.963 16.0261C120.42 16.6248 119.701 16.9236 118.801 16.9236C117.936 16.9236 117.247 16.6373 116.731 16.0623C116.218 15.4886 115.961 14.7648 115.961 13.8923C115.961 12.9798 116.225 12.2311 116.756 11.6498C117.287 11.0686 118 10.7773 118.9 10.7773C119.765 10.7773 120.463 11.0636 120.988 11.6373C121.489 12.1948 121.741 12.9148 121.741 13.7948ZM120.381 13.8373C120.381 13.2936 120.264 12.8273 120.029 12.4386C119.753 11.9686 119.362 11.7336 118.851 11.7336C118.326 11.7336 117.925 11.9686 117.648 12.4386C117.413 12.8273 117.297 13.3011 117.297 13.8611C117.297 14.4048 117.414 14.8711 117.648 15.2598C117.933 15.7298 118.328 15.9648 118.839 15.9648C119.34 15.9648 119.734 15.7261 120.017 15.2473C120.259 14.8511 120.381 14.3811 120.381 13.8373Z" fill="white"/>
<path d="M128.792 16.7897H127.482V13.4147C127.482 12.3747 127.086 11.8547 126.291 11.8547C125.902 11.8547 125.588 11.9972 125.345 12.2834C125.102 12.5697 124.981 12.9072 124.981 13.2934V16.7884H123.667V12.5809C123.667 12.0634 123.652 11.5022 123.621 10.8947H124.773L124.834 11.8159H124.87C125.024 11.5297 125.252 11.2934 125.55 11.1047C125.907 10.8847 126.304 10.7734 126.741 10.7734C127.29 10.7734 127.748 10.9509 128.113 11.3072C128.567 11.7434 128.792 12.3947 128.792 13.2597V16.7897Z" fill="white"/>
<path d="M137.625 11.8784H136.181V14.7409C136.181 15.4684 136.437 15.8322 136.946 15.8322C137.181 15.8322 137.376 15.8122 137.53 15.7709L137.564 16.7647C137.305 16.8622 136.964 16.9109 136.545 16.9109C136.027 16.9109 135.624 16.7534 135.332 16.4384C135.039 16.1234 134.894 15.5934 134.894 14.8497V11.8784H134.031V10.8972H134.894V9.81719L136.179 9.42969V10.8959H137.624L137.625 11.8784Z" fill="white"/>
<path d="M144.57 16.7916H143.257V13.4416C143.257 12.3853 142.862 11.8566 142.069 11.8566C141.461 11.8566 141.045 12.1628 140.817 12.7753C140.779 12.9041 140.756 13.0616 140.756 13.2466V16.7903H139.445V8.19531H140.756V11.7466H140.781C141.194 11.1003 141.786 10.7778 142.554 10.7778C143.097 10.7778 143.546 10.9553 143.903 11.3116C144.348 11.7553 144.57 12.4153 144.57 13.2878V16.7916Z" fill="white"/>
<path d="M151.735 13.5683C151.735 13.8033 151.717 14.0008 151.686 14.162H147.751C147.769 14.7445 147.957 15.1883 148.321 15.4958C148.654 15.7708 149.083 15.9083 149.609 15.9083C150.191 15.9083 150.722 15.8158 151.2 15.6295L151.406 16.5395C150.846 16.782 150.188 16.9033 149.425 16.9033C148.511 16.9033 147.791 16.6345 147.271 16.097C146.747 15.5595 146.488 14.8383 146.488 13.9333C146.488 13.0445 146.73 12.3045 147.217 11.7145C147.725 11.0845 148.412 10.7695 149.28 10.7695C150.129 10.7695 150.773 11.0845 151.209 11.7145C151.561 12.2145 151.735 12.8333 151.735 13.5683ZM150.483 13.2295C150.493 12.8408 150.407 12.5058 150.229 12.2233C150.001 11.8595 149.654 11.677 149.185 11.677C148.757 11.677 148.407 11.8545 148.141 12.2108C147.923 12.4945 147.794 12.8333 147.751 13.2295H150.483Z" fill="white"/>
</svg>
