<svg width="160" height="80" viewBox="0 0 160 80" fill="none" xmlns="http://www.w3.org/2000/svg">
<path fill-rule="evenodd" clip-rule="evenodd" d="M70.5761 1.36034C69.2912 1.77163 68.5773 3.1611 68.9837 4.46166C69.39 5.76222 70.7628 6.48477 72.0477 6.07348C76.6601 4.59506 81.9425 4.53947 86.588 6.06235C90.6404 7.38514 94.1766 9.94183 96.2742 13.799C96.8013 14.7772 97.2076 15.7554 97.4822 16.7225C98.4376 20.035 98.0862 23.4032 96.7793 26.3378C95.4615 29.2946 93.1882 31.8179 90.3109 33.4075L90.1901 33.4742C89.3115 33.9522 88.378 34.3412 87.4116 34.6302C83.6777 35.7418 80.5917 35.2861 77.2642 34.797C75.507 34.5413 73.684 34.2745 71.5645 34.1856C71.1911 34.1634 70.8616 34.1745 70.5761 34.1967H70.5651C68.2039 34.3968 66.5676 35.6418 65.5133 37.3536C65.3486 37.6204 65.1948 37.9094 65.0631 38.1984C62.2626 34.319 60.6702 30.5618 59.9893 27.0825C58.8911 21.5468 60.0991 16.7114 62.3175 13.221C62.8337 12.4095 63.4377 11.6425 64.1296 10.92C64.8434 10.1752 65.6451 9.47494 66.5237 8.84133C67.6219 8.04098 67.8635 6.49587 67.0728 5.39539C66.2821 4.2838 64.7555 4.03925 63.6683 4.83959C62.5372 5.66217 61.5158 6.55145 60.6263 7.48519C59.6928 8.45227 58.8911 9.48607 58.1992 10.5643C55.3549 15.0329 53.8064 21.1578 55.1792 28.0719C56.2554 33.5298 59.1547 39.4879 64.6897 45.4905C65.1839 46.1019 65.9526 46.4576 66.7872 46.3909C68.138 46.2797 69.1374 45.0792 69.0276 43.7231C68.9946 43.334 68.9837 42.9561 68.9946 42.6226C69.0386 41.6555 69.2363 40.6884 69.6646 39.9881C69.9391 39.5324 70.3784 39.21 70.9934 39.1544C71.1471 39.1433 71.2679 39.1322 71.3778 39.1433C73.1788 39.2211 74.914 39.4768 76.5833 39.7213C80.438 40.2882 84.0072 40.8107 88.7844 39.399C90.1022 39.0099 91.3542 38.4875 92.5293 37.8427L92.672 37.7649C96.4718 35.6529 99.4919 32.3181 101.238 28.3831C102.995 24.4259 103.467 19.8683 102.172 15.3664C101.787 14.0325 101.249 12.7097 100.557 11.4424C97.8226 6.38471 93.2651 3.0833 88.0815 1.38256C82.4916 -0.484909 76.122 -0.429317 70.5761 1.36034Z" fill="white"/>
<path d="M24.5283 50.9571C24.6962 51.2657 24.7907 51.5434 24.8117 51.7903C24.8537 52.0372 24.8747 52.3972 24.8747 52.8704V69.9975C24.8747 71.4171 24.4758 72.2503 23.6782 72.4972C23.2793 72.6206 22.7755 72.6823 22.1668 72.6823C21.558 72.6823 21.0752 72.6309 20.7184 72.528C20.3615 72.4252 20.0887 72.3017 19.8997 72.1577C19.7108 72.0137 19.5639 71.808 19.4589 71.5405C19.354 71.1908 19.3015 70.6559 19.3015 69.9358V59.5978C18.7767 60.2356 18.0105 61.2539 17.0029 62.6529C15.9954 64.0313 15.3551 64.8954 15.0822 65.2451C14.8093 65.5949 14.6204 65.8418 14.5155 65.9858C14.4105 66.1092 14.1481 66.2944 13.7283 66.5412C13.3295 66.7675 12.8886 66.8807 12.4058 66.8807C11.944 66.8807 11.5137 66.7778 11.1149 66.5721C10.737 66.3458 10.4642 66.1298 10.2962 65.924L10.0443 65.5846C9.6245 65.0703 8.79535 63.9799 7.55686 62.3135C6.31838 60.6265 5.64665 59.7212 5.5417 59.5978V69.9975C5.5417 70.4707 5.52071 70.8307 5.47872 71.0776C5.45773 71.3039 5.36327 71.5611 5.19534 71.8491C4.88047 72.4046 4.06181 72.6823 2.73936 72.6823C1.45889 72.6823 0.661225 72.4046 0.346356 71.8491C0.178426 71.5611 0.0734694 71.2936 0.0314868 71.0468C0.0104956 70.7999 0 70.4296 0 69.9358V52.8086C0 52.3355 0.0104956 51.9857 0.0314868 51.7594C0.0734694 51.5125 0.178426 51.2348 0.346356 50.9262C0.661225 50.3913 1.47989 50.1238 2.80234 50.1238C3.3691 50.1238 3.8519 50.1959 4.25073 50.3399C4.67056 50.4633 4.94345 50.597 5.06939 50.741L5.25832 50.9262L12.4058 60.1224C15.9744 55.4934 18.3569 52.4383 19.5534 50.9571C19.9102 50.4016 20.7499 50.1238 22.0723 50.1238C23.4158 50.1238 24.2344 50.4016 24.5283 50.9571Z" fill="white"/>
<path d="M42.8259 56.6353C44.0644 57.1702 44.6836 57.8182 44.6836 58.5794C44.6836 58.9497 44.5997 59.2995 44.4317 59.6287C44.2638 59.9578 44.1798 60.1327 44.1798 60.1533L35.9303 78.2371C35.7623 78.628 35.6154 78.9263 35.4894 79.132C35.3845 79.3378 35.2061 79.5332 34.9542 79.7184C34.7023 79.9035 34.3874 79.9961 34.0096 79.9961C33.6317 79.9961 33.0755 79.8418 32.3408 79.5332C31.1023 78.9983 30.483 78.3605 30.483 77.6199C30.483 77.1261 31.4906 74.7705 33.5058 70.553L27.2399 60.215C26.82 59.5361 26.6101 59.032 26.6101 58.7029C26.6101 58.0445 27.1769 57.3862 28.3104 56.7278C29.0241 56.3164 29.5804 56.1106 29.9792 56.1106C30.3781 56.1106 30.7034 56.1929 30.9553 56.3575C31.2072 56.5221 31.3857 56.697 31.4906 56.8821C31.6166 57.0467 32.1938 58.0034 33.2224 59.7521C34.272 61.4802 35.269 63.0952 36.2136 64.5971C36.3186 64.2679 36.8854 63.0027 37.9139 60.8013C38.9425 58.5794 39.4883 57.3965 39.5513 57.2525C39.6352 57.1084 39.7612 56.9336 39.9291 56.7278C40.202 56.3781 40.5798 56.2032 41.0626 56.2032C41.5664 56.2032 42.1542 56.3472 42.8259 56.6353Z" fill="white"/>
<path d="M46.7465 69.5346C46.2007 68.8763 45.9278 68.29 45.9278 67.7756C45.9278 67.2407 46.3792 66.5412 47.2818 65.6772C47.8066 65.1834 48.3628 64.9365 48.9506 64.9365C49.5383 64.9365 50.357 65.4509 51.4066 66.4795C51.7005 66.8293 52.1203 67.1687 52.666 67.4979C53.2118 67.8065 53.7156 67.9608 54.1774 67.9608C56.1296 67.9608 57.1057 67.179 57.1057 65.6154C57.1057 65.1423 56.8328 64.7514 56.287 64.4428C55.7623 64.1136 55.101 63.877 54.3034 63.733C53.5057 63.589 52.6451 63.3627 51.7214 63.0541C50.7978 62.7249 49.9372 62.3443 49.1395 61.9123C48.3418 61.4802 47.6701 60.8013 47.1244 59.8755C46.5996 58.9292 46.3372 57.7976 46.3372 56.481C46.3372 54.6705 47.0194 53.0967 48.3838 51.7594C49.7693 50.4016 51.648 49.7227 54.02 49.7227C55.2795 49.7227 56.4235 49.8873 57.4521 50.2164C58.5016 50.525 59.2258 50.8439 59.6247 51.1731L60.4118 51.7594C61.0626 52.356 61.3879 52.8601 61.3879 53.2715C61.3879 53.683 61.136 54.2488 60.6322 54.9688C59.9185 55.9975 59.1838 56.5118 58.4282 56.5118C57.9873 56.5118 57.4416 56.3061 56.7908 55.8946C56.7279 55.8535 56.6019 55.7506 56.413 55.586C56.2451 55.4214 56.0876 55.2877 55.9407 55.1848C55.4999 54.9174 54.9331 54.7837 54.2404 54.7837C53.5687 54.7837 53.0019 54.9483 52.5401 55.2774C52.0993 55.586 51.8789 56.0283 51.8789 56.6044C51.8789 57.1599 52.1413 57.6125 52.666 57.9622C53.2118 58.312 53.8835 58.5486 54.6812 58.672C55.4789 58.7954 56.35 58.9909 57.2946 59.2583C58.2392 59.5052 59.1104 59.8138 59.908 60.1841C60.7057 60.5544 61.3669 61.2025 61.8917 62.1283C62.4375 63.0335 62.7104 64.1548 62.7104 65.492C62.7104 66.8293 62.4375 68.0122 61.8917 69.0409C61.3459 70.049 60.6322 70.8307 59.7506 71.3862C58.0503 72.4766 56.2346 73.0218 54.3034 73.0218C53.3168 73.0218 52.3827 72.9086 51.501 72.6823C50.6194 72.4355 49.9057 72.1371 49.3599 71.7874C48.2474 71.1291 47.4707 70.4913 47.0299 69.8741L46.7465 69.5346Z" fill="white"/>
<path d="M64.7573 59.1658C64.7573 58.6926 64.7678 58.3428 64.7888 58.1165C64.8307 57.8696 64.9252 57.5919 65.0721 57.2833C65.366 56.7484 66.1847 56.481 67.5281 56.481C68.5357 56.481 69.2494 56.6558 69.6692 57.0056C70.0261 57.2936 70.215 57.7359 70.236 58.3325C70.257 58.5383 70.2675 58.8366 70.2675 59.2275V70.0284C70.2675 70.5016 70.2465 70.8616 70.2045 71.1085C70.1835 71.3348 70.0891 71.6022 69.9211 71.9108C69.6482 72.4457 68.8401 72.7132 67.4966 72.7132C66.1742 72.7132 65.366 72.4355 65.0721 71.88C64.9252 71.5714 64.8307 71.3039 64.7888 71.0776C64.7678 70.8513 64.7573 70.4913 64.7573 69.9975V59.1658ZM69.9211 53.4567C69.7742 53.7447 69.5013 53.9505 69.1025 54.0739C68.7036 54.1973 68.1684 54.2591 67.4966 54.2591C66.8459 54.2591 66.3211 54.1973 65.9223 54.0739C65.5235 53.9505 65.2401 53.7344 65.0721 53.4258C64.9252 53.1172 64.8307 52.8498 64.7888 52.6235C64.7678 52.3766 64.7573 52.0166 64.7573 51.5434C64.7573 51.0702 64.7678 50.7205 64.7888 50.4942C64.8307 50.2473 64.9252 49.9798 65.0721 49.6918C65.366 49.1363 66.1847 48.8586 67.5281 48.8586C68.8506 48.8586 69.6482 49.1363 69.9211 49.6918C70.0891 50.0004 70.1835 50.2781 70.2045 50.525C70.2465 50.7513 70.2675 51.1011 70.2675 51.5743C70.2675 52.0474 70.2465 52.4075 70.2045 52.6543C70.1835 52.8807 70.0891 53.1481 69.9211 53.4567Z" fill="white"/>
<path d="M82.4807 56.481C83.9291 56.481 84.7793 56.8718 85.0312 57.6536C85.1571 58.0445 85.2201 58.5588 85.2201 59.1966C85.2201 59.8344 85.1466 60.3487 84.9997 60.7396C84.8737 61.1099 84.6638 61.3774 84.3699 61.542C83.9291 61.7888 83.2889 61.9123 82.4492 61.9123L80.4341 61.7888V70.0593C80.4341 70.841 80.3291 71.4274 80.1192 71.8183C79.9303 72.1886 79.6259 72.4355 79.2061 72.5589C78.8073 72.6823 78.2825 72.7441 77.6317 72.7441C76.981 72.7441 76.4562 72.6823 76.0574 72.5589C75.6796 72.4149 75.4067 72.1989 75.2387 71.9108C75.0708 71.6022 74.9658 71.3245 74.9239 71.0776C74.9029 70.8307 74.8924 70.4707 74.8924 69.9975V61.8197H73.7589C73.2131 61.7786 72.8247 61.6551 72.5938 61.4494C72.195 61.0585 71.9956 60.3076 71.9956 59.1966C71.9956 57.5096 72.6148 56.6661 73.8533 56.6661H74.8924V55.0305C74.8924 53.4464 75.4696 52.0166 76.6242 50.741C77.7787 49.4449 79.4475 48.7969 81.6306 48.7969C82.1134 48.7969 82.4702 48.8174 82.7011 48.8586C82.953 48.8792 83.2364 48.9717 83.5513 49.1363C84.118 49.4038 84.4014 50.1959 84.4014 51.5125C84.4014 52.5 84.223 53.2098 83.8661 53.6419C83.5723 53.971 83.1105 54.1562 82.4807 54.1973C82.2918 54.1973 81.9979 54.1973 81.5991 54.1973C80.8224 54.1973 80.4341 54.4545 80.4341 54.9688V56.6661L82.4807 56.481Z" fill="white"/>
<path d="M97.3229 58.0652C97.4495 56.9194 98.283 56.3466 99.8233 56.3466C100.646 56.3466 101.258 56.4079 101.659 56.5307C102.06 56.6535 102.334 56.8683 102.482 57.1752C102.651 57.4821 102.746 57.7583 102.767 58.0038C102.809 58.2289 102.83 58.5767 102.83 59.0473V69.7887C102.83 70.2593 102.809 70.6173 102.767 70.8628C102.746 71.0879 102.661 71.3539 102.514 71.6608C102.218 72.1927 101.49 72.4587 100.33 72.4587C99.1903 72.4587 98.4201 72.3257 98.0192 72.0597C97.6394 71.7733 97.4178 71.3641 97.3545 70.8321C96.5738 71.9165 95.2656 72.4587 93.4298 72.4587C91.6151 72.4587 89.9271 71.6505 88.3656 70.0342C86.8042 68.4179 86.0234 66.5458 86.0234 64.418C86.0234 62.2697 86.8042 60.3976 88.3656 58.8017C89.9482 57.1854 91.6784 56.3772 93.5564 56.3772C94.2738 56.3772 94.9279 56.5 95.5188 56.7455C96.1096 56.991 96.521 57.2263 96.7532 57.4514C96.9853 57.656 97.1752 57.8606 97.3229 58.0652ZM91.5624 64.4487C91.5624 65.1238 91.8367 65.7376 92.3853 66.29C92.9339 66.822 93.5986 67.088 94.3793 67.088C95.16 67.088 95.8036 66.8118 96.31 66.2594C96.8376 65.7069 97.1013 65.1034 97.1013 64.4487C97.1013 63.7735 96.8481 63.1495 96.3417 62.5766C95.8564 62.0037 95.1917 61.7173 94.3477 61.7173C93.5247 61.7173 92.8495 62.0037 92.322 62.5766C91.8156 63.1495 91.5624 63.7735 91.5624 64.4487Z" fill="white"/>
<path d="M116.684 56.5307C117.085 56.6535 117.412 56.8683 117.665 57.1752C117.939 57.4616 118.077 57.9322 118.077 58.5869C118.077 59.2416 117.876 59.9577 117.475 60.7352C117.074 61.5127 116.494 61.9014 115.734 61.9014C115.355 61.9014 114.985 61.8196 114.627 61.6559C114.289 61.4922 113.835 61.4104 113.266 61.4104C112.696 61.4104 112.158 61.6047 111.651 61.9935C111.166 62.3822 110.923 62.8528 110.923 63.4052V69.8501C110.923 70.3206 110.902 70.6787 110.86 70.9242C110.839 71.1493 110.744 71.4152 110.575 71.7221C110.259 72.2541 109.436 72.5201 108.106 72.5201C107.094 72.5201 106.366 72.3462 105.923 71.9983C105.585 71.7119 105.395 71.272 105.353 70.6787C105.353 70.4741 105.353 70.1774 105.353 69.7887V59.0166C105.353 58.546 105.363 58.1982 105.385 57.9731C105.427 57.7276 105.522 57.4616 105.669 57.1752C105.965 56.6228 106.788 56.3466 108.138 56.3466C109.404 56.3466 110.195 56.5818 110.512 57.0524C110.744 57.3798 110.86 57.7174 110.86 58.0652C110.966 57.922 111.113 57.7481 111.303 57.5435C111.514 57.3389 111.947 57.0627 112.601 56.7148C113.255 56.367 113.825 56.1931 114.31 56.1931C114.817 56.1931 115.239 56.2238 115.576 56.2852C115.914 56.3261 116.283 56.4079 116.684 56.5307Z" fill="white"/>
<path d="M119.818 59.0473C119.818 58.5767 119.829 58.2289 119.85 58.0038C119.892 57.7583 119.987 57.4821 120.135 57.1752C120.43 56.6432 121.253 56.3772 122.604 56.3772C123.617 56.3772 124.334 56.5512 124.756 56.899C125.115 57.1854 125.305 57.6253 125.326 58.2186C125.347 58.4232 125.357 58.7199 125.357 59.1086V69.8501C125.357 70.3206 125.336 70.6787 125.294 70.9242C125.273 71.1493 125.178 71.4152 125.009 71.7221C124.735 72.2541 123.922 72.5201 122.572 72.5201C121.243 72.5201 120.43 72.2439 120.135 71.6914C119.987 71.3846 119.892 71.1186 119.85 70.8935C119.829 70.6685 119.818 70.3104 119.818 69.8194V59.0473ZM125.009 53.3697C124.861 53.6561 124.587 53.8607 124.186 53.9834C123.785 54.1062 123.247 54.1676 122.572 54.1676C121.918 54.1676 121.39 54.1062 120.989 53.9834C120.589 53.8607 120.304 53.6459 120.135 53.339C119.987 53.0321 119.892 52.7661 119.85 52.541C119.829 52.2955 119.818 51.9375 119.818 51.4669C119.818 50.9963 119.829 50.6485 119.85 50.4234C119.892 50.1779 119.987 49.9119 120.135 49.6255C120.43 49.0731 121.253 48.7969 122.604 48.7969C123.933 48.7969 124.735 49.0731 125.009 49.6255C125.178 49.9324 125.273 50.2086 125.294 50.4541C125.336 50.6792 125.357 51.027 125.357 51.4976C125.357 51.9682 125.336 52.3262 125.294 52.5717C125.273 52.7968 125.178 53.0628 125.009 53.3697Z" fill="white"/>
<path d="M128.012 71.0777C127.611 70.8321 127.411 70.4434 127.411 69.9114C127.411 69.3795 127.812 68.5713 128.614 67.4869C128.846 67.1391 129.215 66.9652 129.721 66.9652C130.249 66.9652 130.956 67.221 131.842 67.7325C132.728 68.2235 133.53 68.469 134.248 68.469C135.535 68.469 136.178 68.2235 136.178 67.7325C136.178 67.3437 135.471 67.0573 134.058 66.8732C132.728 66.689 131.41 66.2082 130.101 65.4307C129.489 65.0625 128.983 64.4896 128.582 63.7121C128.181 62.9142 127.981 61.973 127.981 60.8886C127.981 57.656 130.27 56.0397 134.849 56.0397C136.347 56.0397 137.887 56.3875 139.47 57.0831C140.209 57.4105 140.578 57.8197 140.578 58.3107C140.578 58.8017 140.346 59.4053 139.881 60.1214C139.417 60.8375 138.942 61.1955 138.457 61.1955C138.204 61.1955 137.729 61.0421 137.033 60.7352C136.358 60.4283 135.619 60.2749 134.817 60.2749C133.572 60.2749 132.95 60.4999 132.95 60.95C132.95 61.5638 133.667 61.9628 135.102 62.1469C136.495 62.2901 137.845 62.6789 139.153 63.3131C139.765 63.5996 140.272 64.1008 140.673 64.8169C141.095 65.5126 141.306 66.3923 141.306 67.4563C141.306 68.5202 141.095 69.4306 140.673 70.1876C140.272 70.9242 139.702 71.4766 138.964 71.8449C137.613 72.4792 135.915 72.7963 133.868 72.7963C131.842 72.7963 129.89 72.2234 128.012 71.0777Z" fill="white"/>
<path d="M152.613 56.4079C154.723 56.4079 156.475 57.1854 157.867 58.7404C159.281 60.2953 159.988 62.1981 159.988 64.4487V69.8501C159.988 70.3206 159.967 70.6787 159.925 70.9242C159.904 71.1493 159.809 71.4152 159.64 71.7221C159.366 72.2541 158.553 72.5201 157.203 72.5201C155.916 72.5201 155.114 72.2541 154.797 71.7221C154.628 71.4152 154.523 71.139 154.481 70.8935C154.46 70.648 154.449 70.2797 154.449 69.7887V64.418C154.449 63.5791 154.206 62.9244 153.721 62.4538C153.236 61.9832 152.613 61.748 151.854 61.748C151.115 61.748 150.461 61.973 149.891 62.4231C149.322 62.8528 148.995 63.3438 148.91 63.8962V69.8501C148.91 70.3206 148.889 70.6787 148.847 70.9242C148.826 71.1493 148.731 71.4152 148.562 71.7221C148.288 72.2541 147.475 72.5201 146.125 72.5201C144.796 72.5201 143.983 72.2439 143.688 71.6914C143.54 71.3846 143.445 71.1186 143.403 70.8935C143.382 70.6685 143.371 70.3104 143.371 69.8194V51.4669C143.371 50.9963 143.382 50.6485 143.403 50.4234C143.445 50.1779 143.54 49.9119 143.688 49.6255C143.983 49.0731 144.806 48.7969 146.157 48.7969C147.486 48.7969 148.288 49.0731 148.562 49.6255C148.731 49.9324 148.826 50.2086 148.847 50.4541C148.889 50.6792 148.91 51.027 148.91 51.4976V58.28C149.965 57.032 151.2 56.4079 152.613 56.4079Z" fill="white"/>
<path fill-rule="evenodd" clip-rule="evenodd" d="M119.851 30.8667C120.298 31.0082 120.549 31.4872 120.408 31.9335C120.266 32.3798 119.785 32.6301 119.338 32.4886C117.723 31.977 115.878 31.9552 114.252 32.4886C112.833 32.9458 111.599 33.8275 110.868 35.1555C110.683 35.4929 110.541 35.8304 110.442 36.1569C110.104 37.2999 110.235 38.4646 110.683 39.477C111.141 40.5002 111.938 41.371 112.942 41.9153L112.986 41.937C113.291 42.1003 113.619 42.2309 113.957 42.3289C115.267 42.7099 116.347 42.5575 117.504 42.3833C118.115 42.2962 118.759 42.1983 119.502 42.1765C119.633 42.1656 119.753 42.1765 119.851 42.1765C120.68 42.2418 121.248 42.6772 121.619 43.265C121.674 43.363 121.728 43.461 121.783 43.559C122.765 42.2201 123.322 40.9247 123.562 39.7273C123.944 37.8224 123.529 36.1569 122.743 34.9487C122.558 34.6657 122.35 34.4044 122.11 34.154C121.859 33.8928 121.586 33.6533 121.27 33.4356C120.888 33.1635 120.8 32.6301 121.073 32.2491C121.346 31.8681 121.881 31.781 122.263 32.0532C122.656 32.3362 123.016 32.641 123.333 32.9675C123.66 33.305 123.944 33.6533 124.184 34.0343C125.177 35.58 125.723 37.6809 125.243 40.0756C124.861 41.9588 123.846 44.0162 121.914 46.0844C121.739 46.2912 121.477 46.4218 121.182 46.3891C120.713 46.3456 120.364 45.9428 120.397 45.4639C120.408 45.3333 120.408 45.2026 120.408 45.0829C120.397 44.7455 120.32 44.4189 120.167 44.1794C120.069 44.027 119.916 43.9073 119.709 43.8964C119.654 43.8964 119.611 43.8855 119.578 43.8964C118.945 43.9182 118.345 44.0052 117.755 44.0923C116.402 44.2883 115.158 44.4733 113.488 43.9835C113.029 43.8528 112.593 43.6678 112.178 43.4501L112.123 43.4283C110.792 42.699 109.733 41.5452 109.122 40.1954C108.511 38.8347 108.336 37.2564 108.794 35.6998C108.925 35.2426 109.111 34.7854 109.362 34.35C110.322 32.6083 111.916 31.4654 113.728 30.8776C115.681 30.2245 117.908 30.2462 119.851 30.8667Z" fill="white"/>
<path fill-rule="evenodd" clip-rule="evenodd" d="M113.358 36.0078C114.242 36.0078 114.966 36.7202 114.966 37.6078C114.966 38.4953 114.242 39.2077 113.358 39.2077C112.462 39.2077 111.75 38.4953 111.75 37.6078C111.75 36.7202 112.474 36.0078 113.358 36.0078Z" fill="white"/>
<path fill-rule="evenodd" clip-rule="evenodd" d="M117.378 36.0078C118.273 36.0078 118.986 36.7202 118.986 37.6078C118.986 38.4953 118.262 39.2077 117.378 39.2077C116.493 39.2077 115.77 38.4953 115.77 37.6078C115.77 36.7202 116.493 36.0078 117.378 36.0078Z" fill="white"/>
<path fill-rule="evenodd" clip-rule="evenodd" d="M120.596 36.0078C121.481 36.0078 122.204 36.7202 122.204 37.6078C122.204 38.4953 121.481 39.2077 120.596 39.2077C119.712 39.2077 118.988 38.4953 118.988 37.6078C118.977 36.7202 119.701 36.0078 120.596 36.0078Z" fill="white"/>
<path fill-rule="evenodd" clip-rule="evenodd" d="M67.0265 18.919L63.5117 19.0684C63.6496 19.2178 64.0056 19.447 64.1779 19.5765C64.3157 19.6761 64.3732 19.706 64.5225 19.8056L66.2569 21.0211L65.338 23.9998C65.763 23.8504 68.0372 22.4556 68.3588 22.346C68.7149 22.5652 71.0695 23.9201 71.3222 23.9998L70.4033 21.0211L73.137 19.0883C73.1485 19.0784 73.16 19.0684 73.16 19.0585C72.7235 19.0385 69.7946 18.9588 69.6453 18.8791C69.4845 18.7795 68.3703 16.0598 68.3588 16C68.221 16.1494 67.7615 17.2752 67.6811 17.4645C67.5778 17.7534 67.1758 18.7695 67.0265 18.919Z" fill="white"/>
<path fill-rule="evenodd" clip-rule="evenodd" d="M77.1867 18.919L73.9648 19.0684C74.0912 19.2178 74.4176 19.447 74.5755 19.5765C74.7019 19.6761 74.7545 19.706 74.8914 19.8056L76.4812 21.0211L75.6389 23.9998C76.0285 23.8504 78.1132 22.4556 78.408 22.346C78.7344 22.5652 80.8928 23.9201 81.1245 23.9998L80.2821 21.0211L82.788 19.0883C82.7985 19.0784 82.8091 19.0684 82.8091 19.0585C82.409 19.0385 79.7241 18.9588 79.5872 18.8791C79.4398 18.7795 78.408 16.0598 78.3975 16C78.2711 16.1494 77.85 17.2752 77.7763 17.4645C77.6815 17.7534 77.313 18.7695 77.1867 18.919Z" fill="white"/>
<path fill-rule="evenodd" clip-rule="evenodd" d="M86.8351 18.919L83.6133 19.0684C83.7396 19.2178 84.066 19.447 84.224 19.5765C84.3503 19.6761 84.403 19.706 84.5398 19.8056L86.1297 21.0211L85.2874 23.9998C85.6769 23.8504 87.7511 22.4556 88.0565 22.346C88.3829 22.5652 90.5413 23.9201 90.7729 23.9998L89.9306 21.0211L92.4365 19.0883C92.447 19.0784 92.4575 19.0684 92.4575 19.0585C92.0574 19.0385 89.3726 18.9588 89.2357 18.8791C89.0778 18.7795 88.0565 16.0598 88.0459 16C87.9196 16.1494 87.4984 17.2752 87.4247 17.4645C87.33 17.7534 86.9615 18.7695 86.8351 18.919Z" fill="white"/>
</svg>
