<svg width="169" height="50" viewBox="0 0 169 50" fill="none" xmlns="http://www.w3.org/2000/svg">
<path d="M162.738 49.9991H6.26301C2.82048 49.9991 0.00390625 47.1866 0.00390625 43.7492V6.24988C0.00390625 2.81242 2.82048 0 6.26301 0H162.738C166.181 0 168.997 2.81242 168.997 6.24988V43.7492C168.997 47.1866 166.181 49.9991 162.738 49.9991Z" fill="#100F0D"/>
<path d="M162.738 0H6.26301C2.82048 0 0.00390625 2.81242 0.00390625 6.24988V43.7492C0.00390625 47.1866 2.82048 49.9991 6.26301 49.9991H162.738C166.181 49.9991 168.997 47.1866 168.997 43.7492V6.24988C168.997 2.81242 166.181 0 162.738 0ZM162.738 0.999475C165.637 0.999475 167.996 3.35496 167.996 6.24988V43.7492C167.996 46.6441 165.638 48.9996 162.738 48.9996H6.26301C3.36381 48.9996 1.00589 46.6441 1.00589 43.7492V6.24988C1.00589 3.35496 3.36381 0.999475 6.26301 0.999475H162.738Z" fill="#A2A2A1"/>
<path d="M133.866 37.4996H136.202V21.8723H133.866V37.4996ZM154.906 27.502L152.228 34.2768H152.148L149.369 27.502H146.853L151.022 36.9708L148.645 42.2382H151.081L157.504 27.5025L154.906 27.502ZM141.658 35.7245C140.895 35.7245 139.827 35.3422 139.827 34.3974C139.827 33.1913 141.156 32.7289 142.303 32.7289C143.33 32.7289 143.814 32.9497 144.437 33.2514C144.256 34.6991 143.008 35.7245 141.658 35.7245ZM141.941 27.1602C140.25 27.1602 138.499 27.9043 137.774 29.5528L139.847 30.4171C140.29 29.5528 141.115 29.2716 141.981 29.2716C143.189 29.2716 144.417 29.9947 144.437 31.2818V31.4424C144.014 31.2012 143.108 30.8395 142.001 30.8395C139.766 30.8395 137.491 32.0654 137.491 34.3574C137.491 36.4482 139.324 37.7953 141.377 37.7953C142.946 37.7953 143.814 37.0916 144.356 36.2671H144.437V37.474H146.693V31.4824C146.693 28.708 144.618 27.1602 141.941 27.1602ZM127.505 29.4043H124.183V24.0481H127.505C129.251 24.0481 130.243 25.4915 130.243 26.7262C130.243 27.9371 129.251 29.4043 127.505 29.4043ZM127.445 21.8727H121.848V37.5H124.183V31.5797H127.445C130.034 31.5797 132.579 29.7086 132.579 26.7267C132.579 23.7454 130.034 21.8727 127.445 21.8727ZM96.9243 35.7272C95.3106 35.7272 93.96 34.3775 93.96 32.5256C93.96 30.6521 95.3106 29.2834 96.9243 29.2834C98.5175 29.2834 99.7678 30.6522 99.7678 32.5256C99.7678 34.3775 98.5175 35.7272 96.9243 35.7272ZM99.6064 28.3768H99.5257C99.0015 27.7527 97.9927 27.1888 96.7228 27.1888C94.0602 27.1888 91.6202 29.5252 91.6202 32.5256C91.6202 35.5055 94.0602 37.8214 96.7228 37.8214C97.9927 37.8214 99.0015 37.2573 99.5257 36.6134H99.6064V37.378C99.6064 39.4127 98.5175 40.4995 96.7629 40.4995C95.3316 40.4995 94.4441 39.4727 94.0808 38.6069L92.0443 39.4526C92.6286 40.8616 94.1811 42.5941 96.763 42.5941C99.5063 42.5941 101.826 40.9828 101.826 37.0556V27.5109H99.6065L99.6064 28.3768ZM103.439 37.4991H105.778V21.8718H103.439V37.4991ZM109.226 32.344C109.166 30.2898 110.821 29.2429 112.01 29.2429C112.938 29.2429 113.724 29.7063 113.987 30.3703L109.226 32.344ZM116.487 30.5715C116.043 29.3841 114.692 27.1888 111.929 27.1888C109.186 27.1888 106.907 29.3435 106.907 32.5051C106.907 35.4856 109.166 37.8214 112.191 37.8214C114.631 37.8214 116.043 36.3317 116.628 35.4655L114.813 34.2571C114.208 35.1433 113.381 35.7272 112.191 35.7272C111.002 35.7272 110.154 35.1834 109.61 34.116L116.729 31.1761L116.487 30.5715ZM59.7692 28.8201V31.0754H65.1739C65.0125 32.3441 64.5891 33.2702 63.9436 33.9148C63.1568 34.6999 61.9266 35.5661 59.7691 35.5661C56.4414 35.5661 53.84 32.8879 53.84 29.5652C53.84 26.2425 56.4414 23.564 59.7691 23.564C61.5641 23.564 62.8747 24.2689 63.8427 25.1751L65.4364 23.5839C64.0848 22.2953 62.2902 21.3086 59.7691 21.3086C55.2106 21.3086 51.3789 25.014 51.3789 29.5652C51.3789 34.116 55.2106 37.8214 59.7691 37.8214C62.2292 37.8214 64.0849 37.0158 65.5367 35.5056C67.0291 34.0154 67.4931 31.9212 67.4931 30.2293C67.4931 29.7063 67.4525 29.223 67.3718 28.8201H59.7692ZM73.6385 35.7272C72.0247 35.7272 70.6331 34.3981 70.6331 32.5051C70.6331 30.5921 72.0247 29.2835 73.6385 29.2835C75.2516 29.2835 76.6432 30.5921 76.6432 32.5051C76.6432 34.3981 75.2516 35.7272 73.6385 35.7272ZM73.6385 27.1888C70.6932 27.1888 68.2936 29.424 68.2936 32.5051C68.2936 35.5661 70.6932 37.8214 73.6385 37.8214C76.5826 37.8214 78.9826 35.5661 78.9826 32.5051C78.9826 29.424 76.5826 27.1888 73.6385 27.1888ZM85.2966 35.7272C83.684 35.7272 82.2919 34.3981 82.2919 32.5051C82.2919 30.5921 83.6841 29.2835 85.2966 29.2835C86.9104 29.2835 88.3016 30.5921 88.3016 32.5051C88.3016 34.3981 86.9104 35.7272 85.2966 35.7272ZM85.2966 27.1888C82.3525 27.1888 79.953 29.424 79.953 32.5051C79.953 35.5661 82.3525 37.8214 85.2966 37.8214C88.2419 37.8214 90.6415 35.5661 90.6415 32.5051C90.6415 29.424 88.2419 27.1888 85.2966 27.1888Z" fill="white"/>
<path d="M25.936 24.2814L12.6094 38.4059C12.6099 38.4088 12.6109 38.4112 12.6113 38.4142C13.0201 39.948 14.423 41.0773 16.0881 41.0773C16.7536 41.0773 17.3786 40.8976 17.9145 40.5822L17.957 40.5573L32.9586 31.9135L25.936 24.2814Z" fill="#EB3131"/>
<path d="M39.419 21.875L39.4062 21.8663L32.9296 18.1172L25.6328 24.6006L32.9549 31.911L39.3974 28.1992C40.5269 27.5904 41.2937 26.4014 41.2937 25.0303C41.2937 23.669 40.5373 22.4859 39.419 21.875Z" fill="#F6B60B"/>
<path d="M12.6066 11.5977C12.5265 11.8927 12.4844 12.2016 12.4844 12.5225V37.4817C12.4844 37.802 12.526 38.112 12.6071 38.406L26.3938 24.6425L12.6066 11.5977Z" fill="#5778C5"/>
<path d="M26.0316 25.0007L32.9299 18.1146L17.9452 9.43952C17.4006 9.11378 16.7649 8.92578 16.0846 8.92578C14.4196 8.92578 13.0148 10.0572 12.606 11.5927C12.6055 11.5942 12.6055 11.5952 12.6055 11.5965L26.0316 25.0007Z" fill="#3BAD49"/>
<path d="M59.3314 12.2264H55.6796V13.1287H58.416C58.3417 13.8651 58.0483 14.4432 57.5534 14.8631C57.0586 15.2831 56.4267 15.494 55.6796 15.494C54.86 15.494 54.1656 15.2088 53.5966 14.6425C53.039 14.0644 52.7555 13.3495 52.7555 12.4882C52.7555 11.627 53.039 10.9121 53.5966 10.334C54.1656 9.76763 54.86 9.48439 55.6796 9.48439C56.1002 9.48439 56.5011 9.55664 56.8688 9.71489C57.2366 9.873 57.5319 10.0938 57.7627 10.377L58.4571 9.68364C58.1421 9.32615 57.7432 9.05277 57.2482 8.85353C56.7533 8.65428 56.237 8.55866 55.6795 8.55866C54.5861 8.55866 53.6591 8.93752 52.9021 9.69342C52.1451 10.4512 51.7656 11.3848 51.7656 12.4882C51.7656 13.5917 52.145 14.5273 52.9021 15.2832C53.659 16.0389 54.5861 16.418 55.6795 16.418C56.8276 16.418 57.7431 16.0507 58.4472 15.3046C59.0672 14.6836 59.3841 13.8438 59.3841 12.793C59.3841 12.6152 59.3627 12.4256 59.3314 12.2264ZM60.7461 8.72646V16.2499H65.145V15.326H61.7143V12.9394H64.8087V12.037H61.7143V9.6523H65.145V8.72644L60.7461 8.72646ZM71.3133 9.65233V8.72646H66.1358V9.65233H68.2405V16.2498H69.2087V9.65233H71.3133ZM76.0007 8.72646H75.0325V16.2499H76.0007V8.72646ZM82.3913 9.65233V8.72646H77.2139V9.65233H79.3184V16.2498H80.2866V9.65233H82.3913ZM92.1614 9.70507C91.4142 8.93747 90.4988 8.55859 89.4054 8.55859C88.3101 8.55859 87.3948 8.93746 86.6475 9.69335C85.9003 10.4395 85.5327 11.375 85.5327 12.4881C85.5327 13.6013 85.9003 14.537 86.6475 15.2831C87.3947 16.0389 88.3101 16.4179 89.4054 16.4179C90.489 16.4179 91.4141 16.0389 92.1614 15.2831C92.9086 14.537 93.2762 13.6014 93.2762 12.4881C93.2762 11.3847 92.9086 10.451 92.1614 9.70507ZM87.3419 10.3339C87.8993 9.76756 88.584 9.48432 89.4054 9.48432C90.225 9.48432 90.9096 9.76757 91.4572 10.3339C92.0147 10.8905 92.2884 11.617 92.2884 12.4881C92.2884 13.3612 92.0147 14.0857 91.4572 14.6424C90.9096 15.2088 90.2249 15.4939 89.4054 15.4939C88.5839 15.4939 87.8993 15.2088 87.3419 14.6424C86.7961 14.0741 86.5223 13.3612 86.5223 12.4881C86.5223 11.617 86.7961 10.9022 87.3419 10.3339ZM95.5765 11.5644L95.5355 10.1131H95.5765L99.4063 16.2498H100.418V8.72639H99.4493V13.1286L99.4904 14.5799H99.4493L95.7878 8.72639H94.6083V16.2498H95.5765V11.5644Z" fill="white" stroke="white" stroke-width="0.26666" stroke-miterlimit="10"/>
</svg>
