<svg width="44" height="28" viewBox="0 0 44 28" fill="none" xmlns="http://www.w3.org/2000/svg">
<path fill-rule="evenodd" clip-rule="evenodd" d="M10.3479 0.816263C9.57687 1.06305 9.14854 1.89679 9.39236 2.67718C9.63618 3.45757 10.4599 3.89113 11.2309 3.64434C13.9986 2.75723 17.1682 2.72387 19.9557 3.63766C22.3873 4.4314 24.5092 5.96551 25.7678 8.28001C26.0841 8.86697 26.3279 9.45391 26.4927 10.0342C27.066 12.0219 26.8551 14.0429 26.0709 15.8038C25.2802 17.578 23.9161 19.0921 22.1896 20.0459L22.1171 20.0859C21.5899 20.3727 21.0298 20.6062 20.4499 20.7796C18.2094 21.4466 16.3577 21.1731 14.361 20.8796C13.3066 20.7262 12.2128 20.5662 10.9409 20.5128C10.7169 20.4995 10.5192 20.5061 10.3479 20.5195H10.3413C8.92449 20.6395 7.94262 21.3866 7.31001 22.4137C7.21116 22.5738 7.11891 22.7472 7.03983 22.9207C5.35945 20.5928 4.40394 18.3384 3.99538 16.2507C3.33641 12.929 4.06128 10.0275 5.3924 7.93315C5.70212 7.44624 6.06456 6.98601 6.47971 6.55246C6.90804 6.10557 7.38908 5.68536 7.91626 5.30517C8.57523 4.82493 8.72021 3.89779 8.24575 3.23746C7.77129 2.57046 6.85531 2.42372 6.20293 2.90396C5.52419 3.39754 4.91135 3.93114 4.37759 4.49143C3.81746 5.07172 3.33641 5.69204 2.92126 6.33903C1.21452 9.02038 0.285369 12.6956 1.10908 16.8443C1.75488 20.1193 3.49456 23.6944 6.81578 27.2962C7.11232 27.663 7.5736 27.8765 8.07442 27.8365C8.88495 27.7698 9.48461 27.0494 9.41872 26.2357C9.39895 26.0022 9.39236 25.7754 9.39895 25.5753C9.42531 24.995 9.54392 24.4148 9.80092 23.9945C9.96566 23.7211 10.2293 23.5276 10.5983 23.4943C10.6905 23.4876 10.763 23.481 10.8289 23.4876C11.9096 23.5343 12.9508 23.6877 13.9524 23.8345C16.2654 24.1746 18.4071 24.4881 21.2736 23.641C22.0644 23.4076 22.8156 23.0941 23.5207 22.7072L23.6064 22.6605C25.8864 21.3932 27.6986 19.3922 28.7464 17.0311C29.8007 14.6565 30.0841 11.9218 29.3065 9.22046C29.0758 8.42006 28.7529 7.62633 28.3378 6.86595C26.697 3.83109 23.9622 1.85011 20.8519 0.829596C17.4977 -0.290966 13.6757 -0.257608 10.3479 0.816263Z" fill="white"/>
<path fill-rule="evenodd" clip-rule="evenodd" d="M39.9149 18.5216C40.1834 18.6065 40.3341 18.8939 40.2489 19.1617C40.1638 19.4295 39.8756 19.5797 39.6071 19.4948C38.6378 19.1878 37.531 19.1748 36.5551 19.4948C35.7037 19.7691 34.9637 20.2982 34.5249 21.0951C34.4135 21.2975 34.3284 21.5 34.2695 21.696C34.0664 22.3818 34.145 23.0807 34.4135 23.6881C34.6886 24.3021 35.1667 24.8246 35.7692 25.1512L35.7954 25.1643C35.9788 25.2622 36.1753 25.3406 36.3783 25.3994C37.1642 25.628 37.8126 25.5366 38.5068 25.4321C38.8736 25.3798 39.26 25.321 39.7053 25.308C39.7839 25.3014 39.856 25.308 39.9149 25.308C40.4127 25.3471 40.7532 25.6084 40.9759 25.9611C41.0086 26.0199 41.0414 26.0787 41.0741 26.1375C41.6636 25.3341 41.9976 24.5568 42.1417 23.8383C42.3709 22.6953 42.122 21.696 41.6505 20.971C41.5391 20.8011 41.4147 20.6444 41.2706 20.4941C41.12 20.3374 40.9562 20.1937 40.7663 20.0631C40.5371 19.8998 40.4847 19.5797 40.6484 19.3511C40.8122 19.1225 41.1331 19.0702 41.3623 19.2335C41.5981 19.4034 41.8142 19.5862 42.0041 19.7822C42.2006 19.9847 42.3709 20.1937 42.515 20.4223C43.111 21.3498 43.4384 22.6104 43.1502 24.0474C42.921 25.1773 42.3119 26.4118 41.1527 27.6528C41.0479 27.7769 40.8908 27.8553 40.7139 27.8357C40.4323 27.8096 40.2227 27.5679 40.2424 27.2805C40.2489 27.2021 40.2489 27.1238 40.2489 27.0519C40.2424 26.8494 40.1965 26.6535 40.1049 26.5098C40.0459 26.4184 39.9542 26.3465 39.8298 26.34C39.797 26.34 39.7708 26.3334 39.7512 26.34C39.3713 26.353 39.0111 26.4053 38.6575 26.4575C37.8454 26.5751 37.0987 26.6861 36.0967 26.3922C35.8216 26.3138 35.5597 26.2028 35.3108 26.0722L35.278 26.0591C34.479 25.6215 33.8438 24.9291 33.477 24.1192C33.1102 23.3028 33.0054 22.3557 33.2805 21.4216C33.3591 21.1473 33.4704 20.873 33.6211 20.6117C34.1974 19.5666 35.1536 18.8808 36.2408 18.5281C37.4131 18.1362 38.7491 18.1493 39.9149 18.5216Z" fill="white"/>
<path fill-rule="evenodd" clip-rule="evenodd" d="M36.0196 21.6055C36.5503 21.6055 36.9845 22.0329 36.9845 22.5655C36.9845 23.0981 36.5503 23.5256 36.0196 23.5256C35.482 23.5256 35.0547 23.0981 35.0547 22.5655C35.0547 22.0329 35.4889 21.6055 36.0196 21.6055Z" fill="white"/>
<path fill-rule="evenodd" clip-rule="evenodd" d="M38.4336 21.6055C38.9712 21.6055 39.3985 22.0329 39.3985 22.5655C39.3985 23.0981 38.9643 23.5256 38.4336 23.5256C37.9029 23.5256 37.4688 23.0981 37.4688 22.5655C37.4688 22.0329 37.9029 21.6055 38.4336 21.6055Z" fill="white"/>
<path fill-rule="evenodd" clip-rule="evenodd" d="M40.3634 21.6055C40.894 21.6055 41.3282 22.0329 41.3282 22.5655C41.3282 23.0981 40.894 23.5256 40.3634 23.5256C39.8327 23.5256 39.3985 23.0981 39.3985 22.5655C39.3916 22.0329 39.8258 21.6055 40.3634 21.6055Z" fill="white"/>
<path fill-rule="evenodd" clip-rule="evenodd" d="M8.21836 11.3531L6.10938 11.4427C6.19208 11.5324 6.40574 11.6699 6.50912 11.7476C6.59182 11.8074 6.62628 11.8253 6.71588 11.8851L7.75658 12.6144L7.20522 14.4018C7.46023 14.3121 8.82486 13.4752 9.01784 13.4095C9.23149 13.541 10.6444 14.354 10.796 14.4018L10.2446 12.6144L11.8849 11.4547C11.8918 11.4487 11.8987 11.4427 11.8987 11.4368C11.6368 11.4248 9.87935 11.377 9.78976 11.3292C9.69327 11.2694 9.02473 9.63743 9.01784 9.60156C8.93513 9.69123 8.65945 10.3667 8.61121 10.4803C8.54918 10.6537 8.30796 11.2634 8.21836 11.3531Z" fill="white"/>
<path fill-rule="evenodd" clip-rule="evenodd" d="M14.316 11.3531L12.3828 11.4427C12.4586 11.5324 12.6545 11.6699 12.7492 11.7476C12.8251 11.8074 12.8566 11.8253 12.9388 11.8851L13.8928 12.6144L13.3873 14.4018C13.6211 14.3121 14.872 13.4752 15.0489 13.4095C15.2448 13.541 16.5399 14.354 16.6789 14.4018L16.1735 12.6144L17.6771 11.4547C17.6834 11.4487 17.6897 11.4427 17.6897 11.4368C17.4496 11.4248 15.8386 11.377 15.7565 11.3292C15.668 11.2694 15.0489 9.63743 15.0426 9.60156C14.9668 9.69123 14.7141 10.3667 14.6698 10.4803C14.613 10.6537 14.3919 11.2634 14.316 11.3531Z" fill="white"/>
<path fill-rule="evenodd" clip-rule="evenodd" d="M20.1051 11.3531L18.1719 11.4427C18.2477 11.5324 18.4435 11.6699 18.5383 11.7476C18.6141 11.8074 18.6457 11.8253 18.7278 11.8851L19.6818 12.6144L19.1764 14.4018C19.4102 14.3121 20.6548 13.4752 20.838 13.4095C21.0338 13.541 22.329 14.354 22.468 14.4018L21.9625 12.6144L23.4662 11.4547C23.4725 11.4487 23.4788 11.4427 23.4788 11.4368C23.2387 11.4248 21.6277 11.377 21.5456 11.3292C21.4508 11.2694 20.838 9.63743 20.8317 9.60156C20.7558 9.69123 20.5031 10.3667 20.4589 10.4803C20.402 10.6537 20.1809 11.2634 20.1051 11.3531Z" fill="white"/>
</svg>
