<svg width="96" height="48" viewBox="0 0 96 48" fill="none" xmlns="http://www.w3.org/2000/svg">
<path fill-rule="evenodd" clip-rule="evenodd" d="M42.3479 0.816263C41.5769 1.06305 41.1485 1.89679 41.3924 2.67718C41.6362 3.45757 42.4599 3.89113 43.2309 3.64434C45.9986 2.75723 49.1682 2.72387 51.9557 3.63766C54.3873 4.4314 56.5092 5.96551 57.7678 8.28001C58.0841 8.86697 58.3279 9.45391 58.4927 10.0342C59.066 12.0219 58.8551 14.0429 58.0709 15.8038C57.2802 17.578 55.9161 19.0921 54.1896 20.0459L54.1171 20.0859C53.5899 20.3727 53.0298 20.6062 52.4499 20.7796C50.2094 21.4466 48.3577 21.1731 46.361 20.8796C45.3066 20.7262 44.2128 20.5662 42.9409 20.5128C42.7169 20.4995 42.5192 20.5061 42.3479 20.5195H42.3413C40.9245 20.6395 39.9426 21.3866 39.31 22.4137C39.2112 22.5738 39.1189 22.7472 39.0398 22.9207C37.3595 20.5928 36.4039 18.3384 35.9954 16.2507C35.3364 12.929 36.0613 10.0275 37.3924 7.93315C37.7021 7.44624 38.0646 6.98601 38.4797 6.55246C38.908 6.10557 39.3891 5.68536 39.9163 5.30517C40.5752 4.82493 40.7202 3.89779 40.2457 3.23746C39.7713 2.57046 38.8553 2.42372 38.2029 2.90396C37.5242 3.39754 36.9114 3.93114 36.3776 4.49143C35.8175 5.07172 35.3364 5.69204 34.9213 6.33903C33.2145 9.02038 32.2854 12.6956 33.1091 16.8443C33.7549 20.1193 35.4946 23.6944 38.8158 27.2962C39.1123 27.663 39.5736 27.8765 40.0744 27.8365C40.885 27.7698 41.4846 27.0494 41.4187 26.2357C41.3989 26.0022 41.3924 25.7754 41.3989 25.5753C41.4253 24.995 41.5439 24.4148 41.8009 23.9945C41.9657 23.7211 42.2293 23.5276 42.5983 23.4943C42.6905 23.4876 42.763 23.481 42.8289 23.4876C43.9096 23.5343 44.9508 23.6877 45.9524 23.8345C48.2654 24.1746 50.4071 24.4881 53.2736 23.641C54.0644 23.4076 54.8156 23.0941 55.5207 22.7072L55.6064 22.6605C57.8864 21.3932 59.6986 19.3922 60.7464 17.0311C61.8007 14.6565 62.0841 11.9218 61.3065 9.22046C61.0758 8.42006 60.7529 7.62633 60.3378 6.86595C58.697 3.83109 55.9622 1.85011 52.8519 0.829596C49.4977 -0.290966 45.6757 -0.257608 42.3479 0.816263Z" fill="white"/>
<path d="M14.718 30.5775C14.8188 30.7626 14.8755 30.9293 14.8881 31.0774C14.9132 31.2256 14.9258 31.4416 14.9258 31.7255V42.0025C14.9258 42.8543 14.6865 43.3543 14.2079 43.5024C13.9686 43.5765 13.6663 43.6135 13.301 43.6135C12.9357 43.6135 12.646 43.5827 12.4319 43.5209C12.2178 43.4592 12.054 43.3851 11.9407 43.2987C11.8273 43.2123 11.7391 43.0889 11.6762 42.9284C11.6132 42.7185 11.5817 42.3976 11.5817 41.9655V35.7623C11.2668 36.1449 10.8071 36.756 10.2025 37.5955C9.59788 38.4226 9.21371 38.941 9.04997 39.1509C8.88623 39.3608 8.77287 39.5089 8.70989 39.5953C8.64691 39.6694 8.48947 39.7805 8.23755 39.9286C7.99824 40.0644 7.73373 40.1323 7.44403 40.1323C7.16692 40.1323 6.90871 40.0706 6.66939 39.9471C6.44267 39.8113 6.27893 39.6817 6.17816 39.5583L6.02702 39.3546C5.7751 39.046 5.27758 38.3917 4.53443 37.3918C3.79129 36.3795 3.38823 35.8363 3.32525 35.7623V42.0025C3.32525 42.2865 3.31265 42.5025 3.28746 42.6506C3.27487 42.7864 3.21819 42.9407 3.11742 43.1136C2.92849 43.4469 2.43726 43.6135 1.64373 43.6135C0.875397 43.6135 0.396763 43.4469 0.207828 43.1136C0.107063 42.9407 0.0440847 42.7803 0.0188934 42.6321C0.0062978 42.484 0 42.2618 0 41.9655V31.6885C0 31.4046 0.0062978 31.1947 0.0188934 31.0589C0.0440847 30.9108 0.107063 30.7441 0.207828 30.5589C0.396763 30.238 0.887993 30.0775 1.68152 30.0775C2.0216 30.0775 2.3113 30.1207 2.55062 30.2071C2.80253 30.2812 2.96627 30.3614 3.04185 30.4478L3.15521 30.5589L7.44403 36.077C9.58529 33.2995 11.0149 31.4663 11.7328 30.5775C11.947 30.2441 12.4508 30.0775 13.2443 30.0775C14.0504 30.0775 14.5417 30.2441 14.718 30.5775Z" fill="white"/>
<path d="M25.6973 33.9846C26.4405 34.3056 26.812 34.6944 26.812 35.1512C26.812 35.3734 26.7617 35.5833 26.6609 35.7808C26.5601 35.9783 26.5097 36.0832 26.5097 36.0956L21.5597 46.9466C21.4589 47.1812 21.3707 47.3602 21.2952 47.4836C21.2322 47.6071 21.1251 47.7243 20.974 47.8354C20.8228 47.9465 20.6339 48.0021 20.4072 48.0021C20.1804 48.0021 19.8467 47.9095 19.4058 47.7243C18.6627 47.4034 18.2911 47.0207 18.2911 46.5763C18.2911 46.28 18.8957 44.8665 20.1049 42.3358L16.3451 36.1326C16.0932 35.7252 15.9672 35.4228 15.9672 35.2253C15.9672 34.8302 16.3073 34.4352 16.9874 34.0402C17.4157 33.7933 17.7495 33.6698 17.9888 33.6698C18.2281 33.6698 18.4233 33.7192 18.5745 33.818C18.7256 33.9167 18.8327 34.0216 18.8957 34.1327C18.9713 34.2315 19.3176 34.8055 19.9348 35.8548C20.5646 36.8918 21.1629 37.8609 21.7297 38.762C21.7927 38.5645 22.1328 37.8053 22.75 36.4844C23.3671 35.1512 23.6946 34.4414 23.7324 34.3549C23.7828 34.2685 23.8584 34.1636 23.9591 34.0402C24.1229 33.8303 24.3496 33.7254 24.6393 33.7254C24.9416 33.7254 25.2943 33.8118 25.6973 33.9846Z" fill="white"/>
<path d="M28.0499 41.7248C27.7224 41.3297 27.5586 40.9779 27.5586 40.6693C27.5586 40.3483 27.8294 39.9286 28.371 39.4101C28.6859 39.1139 29.0197 38.9657 29.3724 38.9657C29.7251 38.9657 30.2163 39.2743 30.8461 39.8916C31.0224 40.1014 31.2743 40.3051 31.6018 40.5026C31.9293 40.6878 32.2316 40.7804 32.5087 40.7804C33.6801 40.7804 34.2658 40.3113 34.2658 39.3731C34.2658 39.0892 34.1021 38.8546 33.7746 38.6694C33.4597 38.4719 33.0629 38.33 32.5843 38.2436C32.1057 38.1571 31.5892 38.0213 31.035 37.8362C30.4808 37.6387 29.9644 37.4103 29.4858 37.151C29.0071 36.8918 28.6041 36.4844 28.2766 35.9289C27.9617 35.361 27.8042 34.6821 27.8042 33.892C27.8042 32.8057 28.2136 31.8613 29.0323 31.0589C29.8636 30.2441 30.9909 29.8368 32.4142 29.8368C33.17 29.8368 33.8565 29.9355 34.4736 30.133C35.1034 30.3182 35.538 30.5096 35.7773 30.7071L36.2496 31.0589C36.6401 31.4169 36.8353 31.7193 36.8353 31.9662C36.8353 32.2131 36.6842 32.5526 36.3819 32.9847C35.9536 33.6019 35.5128 33.9105 35.0593 33.9105C34.7948 33.9105 34.4673 33.7871 34.0769 33.5402C34.0391 33.5155 33.9635 33.4538 33.8502 33.355C33.7494 33.2563 33.6549 33.176 33.5668 33.1143C33.3022 32.9538 32.9622 32.8736 32.5465 32.8736C32.1434 32.8736 31.8034 32.9723 31.5263 33.1699C31.2618 33.355 31.1295 33.6204 31.1295 33.9661C31.1295 34.2994 31.2869 34.571 31.6018 34.7808C31.9293 34.9907 32.3324 35.1327 32.811 35.2067C33.2896 35.2808 33.8124 35.3981 34.3792 35.5586C34.946 35.7067 35.4687 35.8919 35.9473 36.1141C36.426 36.3363 36.8227 36.7251 37.1376 37.2807C37.4651 37.8238 37.6288 38.4966 37.6288 39.299C37.6288 40.1014 37.4651 40.8113 37.1376 41.4285C36.8101 42.0334 36.3819 42.5025 35.8529 42.8358C34.8326 43.4901 33.7431 43.8172 32.5843 43.8172C31.9923 43.8172 31.4318 43.7493 30.9028 43.6135C30.3738 43.4654 29.9455 43.2864 29.618 43.0765C28.9504 42.6815 28.4844 42.2988 28.2199 41.9285L28.0499 41.7248Z" fill="white"/>
<path d="M38.8571 35.503C38.8571 35.2191 38.8634 35.0092 38.876 34.8734C38.9012 34.7253 38.9578 34.5586 39.046 34.3735C39.2223 34.0525 39.7136 33.892 40.5197 33.892C41.1243 33.892 41.5525 33.997 41.8045 34.2068C42.0186 34.3796 42.1319 34.6451 42.1445 35.0031C42.1571 35.1265 42.1634 35.3055 42.1634 35.54V42.0211C42.1634 42.305 42.1508 42.521 42.1256 42.6692C42.113 42.8049 42.0564 42.9654 41.9556 43.1506C41.7919 43.4716 41.3069 43.632 40.5008 43.632C39.7073 43.632 39.2223 43.4654 39.046 43.1321C38.9578 42.9469 38.9012 42.7864 38.876 42.6506C38.8634 42.5148 38.8571 42.2988 38.8571 42.0025V35.503ZM41.9556 32.0773C41.8674 32.2502 41.7037 32.3736 41.4644 32.4477C41.2251 32.5218 40.9039 32.5588 40.5008 32.5588C40.1103 32.5588 39.7954 32.5218 39.5561 32.4477C39.3168 32.3736 39.1468 32.244 39.046 32.0588C38.9578 31.8737 38.9012 31.7132 38.876 31.5774C38.8634 31.4292 38.8571 31.2132 38.8571 30.9293C38.8571 30.6453 38.8634 30.4355 38.876 30.2997C38.9012 30.1516 38.9578 29.9911 39.046 29.8182C39.2223 29.4849 39.7136 29.3183 40.5197 29.3183C41.3132 29.3183 41.7919 29.4849 41.9556 29.8182C42.0564 30.0034 42.113 30.1701 42.1256 30.3182C42.1508 30.454 42.1634 30.6639 42.1634 30.9478C42.1634 31.2317 42.1508 31.4478 42.1256 31.5959C42.113 31.7317 42.0564 31.8922 41.9556 32.0773Z" fill="white"/>
<path d="M49.4919 33.892C50.361 33.892 50.8711 34.1266 51.0223 34.5957C51.0978 34.8302 51.1356 35.1388 51.1356 35.5215C51.1356 35.9042 51.0915 36.2128 51.0034 36.4474C50.9278 36.6696 50.8018 36.8301 50.6255 36.9288C50.361 37.077 49.9768 37.151 49.473 37.151L48.2638 37.077V42.0396C48.2638 42.5087 48.2008 42.8605 48.0749 43.095C47.9615 43.3173 47.7789 43.4654 47.527 43.5395C47.2876 43.6135 46.9728 43.6506 46.5823 43.6506C46.1918 43.6506 45.8769 43.6135 45.6376 43.5395C45.4109 43.453 45.2472 43.3234 45.1464 43.1506C45.0456 42.9654 44.9826 42.7988 44.9575 42.6506C44.9449 42.5025 44.9386 42.2865 44.9386 42.0025V37.0955H44.2584C43.9309 37.0708 43.6979 36.9967 43.5593 36.8733C43.32 36.6387 43.2004 36.1881 43.2004 35.5215C43.2004 34.5093 43.5719 34.0031 44.3151 34.0031H44.9386V33.0217C44.9386 32.0712 45.2849 31.2132 45.9777 30.4478C46.6705 29.6701 47.6718 29.2812 48.9818 29.2812C49.2715 29.2812 49.4856 29.2936 49.6241 29.3183C49.7753 29.3306 49.9453 29.3862 50.1343 29.4849C50.4743 29.6454 50.6444 30.1207 50.6444 30.9108C50.6444 31.5033 50.5373 31.9292 50.3232 32.1884C50.1469 32.386 49.8698 32.4971 49.4919 32.5218C49.3785 32.5218 49.2022 32.5218 48.9629 32.5218C48.4968 32.5218 48.2638 32.6761 48.2638 32.9847V34.0031L49.4919 33.892Z" fill="white"/>
<path d="M58.3973 34.8426C58.4733 34.1551 58.9734 33.8114 59.8977 33.8114C60.3915 33.8114 60.7587 33.8482 60.9992 33.9219C61.2398 33.9955 61.4044 34.1244 61.493 34.3086C61.5943 34.4927 61.6513 34.6585 61.6639 34.8058C61.6893 34.9408 61.7019 35.1495 61.7019 35.4319V41.8772C61.7019 42.1596 61.6893 42.3744 61.6639 42.5217C61.6513 42.6568 61.6006 42.8164 61.512 43.0005C61.3347 43.3197 60.8979 43.4793 60.2016 43.4793C59.5178 43.4793 59.0557 43.3995 58.8151 43.2399C58.5872 43.0681 58.4543 42.8225 58.4163 42.5033C57.9478 43.154 57.1628 43.4793 56.0613 43.4793C54.9724 43.4793 53.9595 42.9944 53.0226 42.0245C52.0857 41.0547 51.6172 39.9313 51.6172 38.6546C51.6172 37.3655 52.0857 36.2422 53.0226 35.2846C53.9722 34.3147 55.0104 33.8298 56.1373 33.8298C56.5678 33.8298 56.9603 33.9035 57.3148 34.0508C57.6693 34.1981 57.9162 34.3393 58.0555 34.4743C58.1947 34.5971 58.3087 34.7199 58.3973 34.8426ZM54.9408 38.673C54.9408 39.0781 55.1054 39.4464 55.4346 39.7779C55.7638 40.0971 56.1626 40.2567 56.6311 40.2567C57.0995 40.2567 57.4857 40.0909 57.7896 39.7595C58.1061 39.428 58.2644 39.0658 58.2644 38.673C58.2644 38.2678 58.1124 37.8934 57.8086 37.5497C57.5174 37.2059 57.1185 37.034 56.6121 37.034C56.1183 37.034 55.7131 37.2059 55.3966 37.5497C55.0927 37.8934 54.9408 38.2678 54.9408 38.673Z" fill="white"/>
<path d="M70.0148 33.9219C70.2553 33.9955 70.4516 34.1244 70.6035 34.3086C70.7681 34.4805 70.8504 34.7628 70.8504 35.1557C70.8504 35.5485 70.7301 35.9782 70.4896 36.4447C70.249 36.9113 69.9008 37.1445 69.445 37.1445C69.2171 37.1445 68.9955 37.0954 68.7803 36.9972C68.5777 36.899 68.3055 36.8499 67.9636 36.8499C67.6218 36.8499 67.2989 36.9665 66.995 37.1998C66.7038 37.433 66.5582 37.7154 66.5582 38.0469V41.914C66.5582 42.1964 66.5456 42.4113 66.5202 42.5586C66.5076 42.6936 66.4506 42.8532 66.3493 43.0374C66.1594 43.3566 65.6656 43.5162 64.8679 43.5162C64.2602 43.5162 63.8234 43.4118 63.5575 43.2031C63.3549 43.0312 63.241 42.7673 63.2156 42.4113C63.2156 42.2885 63.2156 42.1105 63.2156 41.8772V35.4135C63.2156 35.1311 63.222 34.9224 63.2346 34.7874C63.26 34.6401 63.3169 34.4805 63.4056 34.3086C63.5828 33.9771 64.0766 33.8114 64.8869 33.8114C65.6466 33.8114 66.1214 33.9526 66.3113 34.2349C66.4506 34.4314 66.5202 34.6339 66.5202 34.8426C66.5836 34.7567 66.6722 34.6523 66.7861 34.5296C66.9127 34.4068 67.1723 34.2411 67.5648 34.0324C67.9573 33.8237 68.2992 33.7193 68.5904 33.7193C68.8942 33.7193 69.1475 33.7377 69.35 33.7745C69.5526 33.7991 69.7742 33.8482 70.0148 33.9219Z" fill="white"/>
<path d="M71.8956 35.4319C71.8956 35.1495 71.9019 34.9408 71.9146 34.8058C71.9399 34.6585 71.9969 34.4927 72.0855 34.3086C72.2627 33.9894 72.7565 33.8298 73.5669 33.8298C74.1746 33.8298 74.6051 33.9341 74.8583 34.1428C75.0736 34.3147 75.1875 34.5787 75.2002 34.9347C75.2128 35.0575 75.2192 35.2355 75.2192 35.4687V41.914C75.2192 42.1964 75.2065 42.4113 75.1812 42.5586C75.1685 42.6936 75.1115 42.8532 75.0103 43.0374C74.8457 43.3566 74.3582 43.5162 73.5479 43.5162C72.7502 43.5162 72.2627 43.3504 72.0855 43.019C71.9969 42.8348 71.9399 42.6752 71.9146 42.5402C71.9019 42.4051 71.8956 42.1903 71.8956 41.8956V35.4319ZM75.0103 32.0251C74.9216 32.197 74.757 32.3198 74.5165 32.3934C74.2759 32.4671 73.953 32.5039 73.5479 32.5039C73.1554 32.5039 72.8388 32.4671 72.5983 32.3934C72.3577 32.3198 72.1868 32.1908 72.0855 32.0067C71.9969 31.8225 71.9399 31.6629 71.9146 31.5279C71.9019 31.3806 71.8956 31.1657 71.8956 30.8834C71.8956 30.601 71.9019 30.3923 71.9146 30.2573C71.9399 30.1099 71.9969 29.9503 72.0855 29.7785C72.2627 29.447 72.7565 29.2812 73.5669 29.2812C74.3645 29.2812 74.8457 29.447 75.0103 29.7785C75.1115 29.9626 75.1685 30.1283 75.1812 30.2757C75.2065 30.4107 75.2192 30.6194 75.2192 30.9018C75.2192 31.1841 75.2065 31.399 75.1812 31.5463C75.1685 31.6814 75.1115 31.841 75.0103 32.0251Z" fill="white"/>
<path d="M76.8123 42.6506C76.5717 42.5033 76.4514 42.2701 76.4514 41.9509C76.4514 41.6317 76.692 41.1467 77.1731 40.4961C77.3124 40.2874 77.534 40.183 77.8378 40.183C78.1544 40.183 78.5785 40.3365 79.1103 40.6434C79.6421 40.938 80.1232 41.0854 80.5537 41.0854C81.326 41.0854 81.7122 40.938 81.7122 40.6434C81.7122 40.4101 81.288 40.2383 80.4397 40.1278C79.6421 40.0173 78.8507 39.7288 78.0657 39.2623C77.6986 39.0413 77.3947 38.6975 77.1541 38.231C76.9136 37.7522 76.7933 37.1875 76.7933 36.5368C76.7933 34.5971 78.167 33.6272 80.9145 33.6272C81.8135 33.6272 82.7378 33.8359 83.6874 34.2533C84.1305 34.4498 84.3521 34.6953 84.3521 34.9899C84.3521 35.2846 84.2128 35.6468 83.9342 36.0764C83.6557 36.5061 83.3708 36.721 83.0796 36.721C82.9277 36.721 82.6428 36.6289 82.225 36.4447C81.8198 36.2606 81.3767 36.1685 80.8955 36.1685C80.1485 36.1685 79.775 36.3036 79.775 36.5736C79.775 36.942 80.2055 37.1813 81.0665 37.2918C81.9021 37.3778 82.7124 37.611 83.4974 37.9916C83.8646 38.1635 84.1685 38.4643 84.409 38.894C84.6623 39.3114 84.7889 39.8393 84.7889 40.4777C84.7889 41.1161 84.6623 41.6624 84.409 42.1166C84.1685 42.5586 83.8266 42.89 83.3835 43.111C82.5732 43.4916 81.5539 43.6819 80.3258 43.6819C79.1103 43.6819 77.9391 43.3381 76.8123 42.6506Z" fill="white"/>
<path d="M91.5739 33.8482C92.84 33.8482 93.8909 34.3147 94.7266 35.2478C95.5749 36.1808 95.999 37.3225 95.999 38.673V41.914C95.999 42.1964 95.9864 42.4113 95.9611 42.5586C95.9484 42.6936 95.8914 42.8532 95.7901 43.0374C95.6255 43.3566 95.1381 43.5162 94.3278 43.5162C93.5554 43.5162 93.0743 43.3566 92.8844 43.0374C92.7831 42.8532 92.7198 42.6875 92.6944 42.5402C92.6818 42.3928 92.6754 42.1719 92.6754 41.8772V38.6546C92.6754 38.1512 92.5298 37.7584 92.2386 37.476C91.9474 37.1936 91.5739 37.0524 91.1181 37.0524C90.675 37.0524 90.2825 37.1875 89.9406 37.4576C89.5988 37.7154 89.4025 38.01 89.3519 38.3415V41.914C89.3519 42.1964 89.3392 42.4113 89.3139 42.5586C89.3012 42.6936 89.2442 42.8532 89.1429 43.0374C88.9783 43.3566 88.4909 43.5162 87.6806 43.5162C86.8829 43.5162 86.3954 43.3504 86.2182 43.019C86.1296 42.8348 86.0726 42.6752 86.0473 42.5402C86.0346 42.4051 86.0283 42.1903 86.0283 41.8956V30.8834C86.0283 30.601 86.0346 30.3923 86.0473 30.2573C86.0726 30.1099 86.1296 29.9503 86.2182 29.7785C86.3954 29.447 86.8892 29.2812 87.6996 29.2812C88.4972 29.2812 88.9783 29.447 89.1429 29.7785C89.2442 29.9626 89.3012 30.1283 89.3139 30.2757C89.3392 30.4107 89.3519 30.6194 89.3519 30.9018V34.9715C89.9849 34.2226 90.7256 33.8482 91.5739 33.8482Z" fill="white"/>
<path fill-rule="evenodd" clip-rule="evenodd" d="M71.9149 18.5216C72.1834 18.6065 72.3341 18.8939 72.2489 19.1617C72.1638 19.4295 71.8756 19.5797 71.6071 19.4948C70.6378 19.1878 69.531 19.1748 68.5551 19.4948C67.7037 19.7691 66.9637 20.2982 66.5249 21.0951C66.4135 21.2975 66.3284 21.5 66.2695 21.696C66.0664 22.3818 66.145 23.0807 66.4135 23.6881C66.6886 24.3021 67.1667 24.8246 67.7692 25.1512L67.7954 25.1643C67.9788 25.2622 68.1753 25.3406 68.3783 25.3994C69.1642 25.628 69.8126 25.5366 70.5068 25.4321C70.8736 25.3798 71.26 25.321 71.7053 25.308C71.7839 25.3014 71.856 25.308 71.9149 25.308C72.4127 25.3471 72.7532 25.6084 72.9759 25.9611C73.0086 26.0199 73.0414 26.0787 73.0741 26.1375C73.6636 25.3341 73.9976 24.5568 74.1417 23.8383C74.3709 22.6953 74.122 21.696 73.6505 20.971C73.5391 20.8011 73.4147 20.6444 73.2706 20.4941C73.12 20.3374 72.9562 20.1937 72.7663 20.0631C72.5371 19.8998 72.4847 19.5797 72.6484 19.3511C72.8122 19.1225 73.1331 19.0702 73.3623 19.2335C73.5981 19.4034 73.8142 19.5862 74.0041 19.7822C74.2006 19.9847 74.3709 20.1937 74.515 20.4223C75.111 21.3498 75.4384 22.6104 75.1502 24.0474C74.921 25.1773 74.3119 26.4118 73.1527 27.6528C73.0479 27.7769 72.8908 27.8553 72.7139 27.8357C72.4323 27.8096 72.2227 27.5679 72.2424 27.2805C72.2489 27.2021 72.2489 27.1238 72.2489 27.0519C72.2424 26.8494 72.1965 26.6535 72.1049 26.5098C72.0459 26.4184 71.9542 26.3465 71.8298 26.34C71.797 26.34 71.7708 26.3334 71.7512 26.34C71.3713 26.353 71.0111 26.4053 70.6575 26.4575C69.8454 26.5751 69.0987 26.6861 68.0967 26.3922C67.8216 26.3138 67.5597 26.2028 67.3108 26.0722L67.278 26.0591C66.479 25.6215 65.8438 24.9291 65.477 24.1192C65.1102 23.3028 65.0054 22.3557 65.2805 21.4216C65.3591 21.1473 65.4704 20.873 65.6211 20.6117C66.1974 19.5666 67.1536 18.8808 68.2408 18.5281C69.4131 18.1362 70.7491 18.1493 71.9149 18.5216Z" fill="white"/>
<path fill-rule="evenodd" clip-rule="evenodd" d="M68.0196 21.6055C68.5503 21.6055 68.9845 22.0329 68.9845 22.5655C68.9845 23.0981 68.5503 23.5256 68.0196 23.5256C67.482 23.5256 67.0547 23.0981 67.0547 22.5655C67.0547 22.0329 67.4889 21.6055 68.0196 21.6055Z" fill="white"/>
<path fill-rule="evenodd" clip-rule="evenodd" d="M70.4336 21.6055C70.9712 21.6055 71.3985 22.0329 71.3985 22.5655C71.3985 23.0981 70.9643 23.5256 70.4336 23.5256C69.9029 23.5256 69.4688 23.0981 69.4688 22.5655C69.4688 22.0329 69.9029 21.6055 70.4336 21.6055Z" fill="white"/>
<path fill-rule="evenodd" clip-rule="evenodd" d="M72.3634 21.6055C72.894 21.6055 73.3282 22.0329 73.3282 22.5655C73.3282 23.0981 72.894 23.5256 72.3634 23.5256C71.8327 23.5256 71.3985 23.0981 71.3985 22.5655C71.3916 22.0329 71.8258 21.6055 72.3634 21.6055Z" fill="white"/>
<path fill-rule="evenodd" clip-rule="evenodd" d="M40.2184 11.3531L38.1094 11.4427C38.1921 11.5324 38.4057 11.6699 38.5091 11.7476C38.5918 11.8074 38.6263 11.8253 38.7159 11.8851L39.7566 12.6144L39.2052 14.4018C39.4602 14.3121 40.8249 13.4752 41.0178 13.4095C41.2315 13.541 42.6444 14.354 42.796 14.4018L42.2446 12.6144L43.8849 11.4547C43.8918 11.4487 43.8987 11.4427 43.8987 11.4368C43.6368 11.4248 41.8794 11.377 41.7898 11.3292C41.6933 11.2694 41.0247 9.63743 41.0178 9.60156C40.9351 9.69123 40.6594 10.3667 40.6112 10.4803C40.5492 10.6537 40.308 11.2634 40.2184 11.3531Z" fill="white"/>
<path fill-rule="evenodd" clip-rule="evenodd" d="M46.316 11.3531L44.3828 11.4427C44.4586 11.5324 44.6545 11.6699 44.7492 11.7476C44.8251 11.8074 44.8566 11.8253 44.9388 11.8851L45.8928 12.6144L45.3873 14.4018C45.6211 14.3121 46.872 13.4752 47.0489 13.4095C47.2448 13.541 48.5399 14.354 48.6789 14.4018L48.1735 12.6144L49.6771 11.4547C49.6834 11.4487 49.6897 11.4427 49.6897 11.4368C49.4496 11.4248 47.8386 11.377 47.7565 11.3292C47.668 11.2694 47.0489 9.63743 47.0426 9.60156C46.9668 9.69123 46.7141 10.3667 46.6698 10.4803C46.613 10.6537 46.3919 11.2634 46.316 11.3531Z" fill="white"/>
<path fill-rule="evenodd" clip-rule="evenodd" d="M52.1051 11.3531L50.1719 11.4427C50.2477 11.5324 50.4435 11.6699 50.5383 11.7476C50.6141 11.8074 50.6457 11.8253 50.7278 11.8851L51.6818 12.6144L51.1764 14.4018C51.4102 14.3121 52.6548 13.4752 52.838 13.4095C53.0338 13.541 54.329 14.354 54.468 14.4018L53.9625 12.6144L55.4662 11.4547C55.4725 11.4487 55.4788 11.4427 55.4788 11.4368C55.2387 11.4248 53.6277 11.377 53.5456 11.3292C53.4508 11.2694 52.838 9.63743 52.8317 9.60156C52.7558 9.69123 52.5031 10.3667 52.4589 10.4803C52.402 10.6537 52.1809 11.2634 52.1051 11.3531Z" fill="white"/>
</svg>
